<svg width="78" height="69" viewBox="0 0 78 69" fill="none" xmlns="http://www.w3.org/2000/svg">
<path d="M36.5247 9.13341L38.8117 11.8207L41.096 9.13107C42.7888 7.13787 44.9095 5.55224 47.3 4.49225C49.6874 3.43368 52.2825 2.92659 54.8927 3.00857C60.3236 3.22376 65.4489 5.57919 69.1491 9.56071C72.8517 13.5448 74.8261 18.833 74.6405 24.2688L74.6387 24.32V24.3712C74.6387 35.0079 66.9505 41.8878 58.868 48.9003C57.8665 49.766 56.8543 50.6487 55.8532 51.537L55.8453 51.5441L52.7335 54.3251L52.6963 54.3583L52.6603 54.3927C48.8795 58.0048 44.9121 61.4163 40.7745 64.6133C40.1879 64.9699 39.5141 65.1591 38.8262 65.1591C38.1387 65.1591 37.465 64.97 36.8787 64.6136C32.8706 61.5128 29.0235 58.2093 25.3524 54.716L25.3185 54.6838L25.2837 54.6526L21.8175 51.5544L21.8138 51.551C20.9199 50.7547 20.0211 49.9736 19.1457 49.2128C19.0661 49.1436 18.9867 49.0746 18.9075 49.0058C10.3865 41.5979 3.01374 34.9793 3.01374 24.3712V24.32L3.012 24.2688C2.82641 18.833 4.8008 13.5448 8.50342 9.56071C12.2027 5.58014 17.3265 3.22488 22.7559 3.00872C25.3605 2.93418 27.9488 3.4447 30.3301 4.50278C32.7157 5.56281 34.8328 7.14533 36.5247 9.13341Z" stroke="#FAFAFA" stroke-width="6"/>
</svg>
